<svg xmlns="http://www.w3.org/2000/svg" xmlns:xlink="http://www.w3.org/1999/xlink" viewBox="0 0 345.6 345.6"><pattern x="-307.2" y="-107.4" width="33.8" height="34.5" patternUnits="userSpaceOnUse" id="a" viewBox="0 -34.5 33.8 34.5" overflow="visible"><path fill="none" d="M0 0h33.8v-34.5H0z"/><path fill="#FFF" d="M30.4-33.2h3.5v28.4L31 0H3.1L.2-5.1l-.2.3v-28.4h3.8l-.7-1.2H31l-.6 1.2zm-9.7 13.3h-7.3l3.6 6.3 3.7-6.3z"/><path fill="#515151" d="M17.1-13.6l3.6-6.3h-7.3zM3.1-34.5H0v1.3h3.8zM0-4.8V0h3.1L.2-5.1zM31-34.5l-.6 1.3h3.4v-1.3zM33.8 0v-4.8L31 0z"/></pattern><pattern id="b" xlink:href="#a" patternTransform="matrix(.431 0 0 .431 -4224.69 -4232.203)"/><path fill="url(#b)" d="M0 0h345.6v345.6H0z"/></svg>