<svg xmlns="http://www.w3.org/2000/svg" xmlns:xlink="http://www.w3.org/1999/xlink" viewBox="204.9 0 550.3 560"><pattern y="560" width="54.8" height="55.9" patternUnits="userSpaceOnUse" id="a" viewBox="0 -55.9 54.8 55.9" overflow="visible"><path fill="none" d="M0 0h54.8v-55.9H0z"/><path fill="none" d="M0-55.9h54.8V0H0z"/><path fill="#FFF" d="M49.3-2.1H55v-46l-4.7-7.8H5L.3-47.6l-.3-.5v46h6.2L5-.2h45.2l-.9-1.9zM33.5-23.7H21.7l5.8-10.2 6 10.2z"/><path fill="#515151" d="M27.7-33.9l5.8 10.2H21.7zM5 0H0v-2.1h6.2zM0-48.1v-7.8h5L.3-47.6zM50.2 0l-.9-2.1h5.5V0zM54.8-55.9v7.8l-4.6-7.8z"/></pattern><pattern id="b" xlink:href="#a" patternTransform="matrix(.6982 0 0 -.6982 -9434.98 -6924.67)"/><path fill="url(#b)" d="M204.9 0h550.3v560H204.9z"/></svg>