<svg xmlns="http://www.w3.org/2000/svg" xmlns:xlink="http://www.w3.org/1999/xlink" viewBox="0 0 205.1 400"><pattern x="-376.9" y="-80.1" width="56" height="57" patternUnits="userSpaceOnUse" id="a" viewBox="0 -57 56 57" overflow="visible"><path fill="none" d="M0 0h56v-57H0z"/><path fill="#515151" d="M50.2-55H56v47l-4.6 8H5.1L.2-8.5 0-8v-47h6.3l-1.2-2h46.2l-1.1 2zM34.3-33H22.2l6 10.5L34.3-33z"/><path fill="#FFF" d="M28.2-22.5L34.3-33H22.2zM5.1-57H0v2h6.3zM0-8v8h5.1L.2-8.5zM51.4-57l-1.2 2H56v-2zM56 0v-8l-4.6 8z"/></pattern><pattern id="b" xlink:href="#a" patternTransform="translate(-51.393 -39.697)"/><path fill="url(#b)" d="M0 0h205.1v400H0z"/></svg>