<?xml version="1.0" encoding="utf-8"?>
<!-- Generator: Adobe Illustrator 18.0.0, SVG Export Plug-In . SVG Version: 6.00 Build 0)  -->
<!DOCTYPE svg PUBLIC "-//W3C//DTD SVG 1.1//EN" "http://www.w3.org/Graphics/SVG/1.1/DTD/svg11.dtd">
<svg version="1.1" id="Layer_1" xmlns="http://www.w3.org/2000/svg" xmlns:xlink="http://www.w3.org/1999/xlink" x="0px" y="0px"
	 viewBox="0 0 345.6 345.6" enable-background="new 0 0 345.6 345.6" xml:space="preserve">
<pattern  x="-307.2" y="-107.4" width="33.8" height="34.5" patternUnits="userSpaceOnUse" id="Nueva_muestra_de_motivo_10" viewBox="0 -34.5 33.8 34.5" overflow="visible">
	<g>
		<polygon fill="none" points="0,0 33.8,0 33.8,-34.5 0,-34.5 		"/>
		<path fill="#FFFFFF" d="M30.4-33.2h3.5v28.4L31,0H3.1L0.2-5.1L0-4.8v-28.4h3.8l-0.7-1.2H31L30.4-33.2z M20.7-19.9h-7.3l3.6,6.3
			L20.7-19.9z"/>
		<polygon fill="#515151" points="17.1,-13.6 20.7,-19.9 13.4,-19.9 		"/>
		<polygon fill="#515151" points="3.1,-34.5 0,-34.5 0,-33.2 3.8,-33.2 		"/>
		<polygon fill="#515151" points="0,-4.8 0,0 3.1,0 0.2,-5.1 		"/>
		<polygon fill="#515151" points="31,-34.5 30.4,-33.2 33.8,-33.2 33.8,-34.5 		"/>
		<polygon fill="#515151" points="33.8,0 33.8,-4.8 31,0 		"/>
	</g>
</pattern>
<pattern  id="SVGID_1_" xlink:href="#Nueva_muestra_de_motivo_10" patternTransform="matrix(0.4309 0 0 0.4309 -4224.689 -4232.2031)">
</pattern>
<rect x="0" y="0" fill="url(#SVGID_1_)" width="345.6" height="345.6"/>
</svg>
