<?xml version="1.0" encoding="utf-8"?>
<!-- Generator: Adobe Illustrator 18.0.0, SVG Export Plug-In . SVG Version: 6.00 Build 0)  -->
<!DOCTYPE svg PUBLIC "-//W3C//DTD SVG 1.1//EN" "http://www.w3.org/Graphics/SVG/1.1/DTD/svg11.dtd">
<svg version="1.1" id="Layer_1" xmlns="http://www.w3.org/2000/svg" xmlns:xlink="http://www.w3.org/1999/xlink" x="0px" y="0px"
	 viewBox="0 0 205.1 400" enable-background="new 0 0 205.1 400" xml:space="preserve">
<pattern  x="-376.9" y="-80.1" width="56" height="57" patternUnits="userSpaceOnUse" id="Nueva_muestra_de_motivo_8" viewBox="0 -57 56 57" overflow="visible">
	<g>
		<polygon fill="none" points="0,0 56,0 56,-57 0,-57 		"/>
		<path fill="#515151" d="M50.2-55H56v47l-4.6,8H5.1L0.2-8.5L0-8v-47h6.3l-1.2-2h46.2L50.2-55z M34.3-33H22.2l6,10.5L34.3-33z"/>
		<polygon fill="#FFFFFF" points="28.2,-22.5 34.3,-33 22.2,-33 		"/>
		<polygon fill="#FFFFFF" points="5.1,-57 0,-57 0,-55 6.3,-55 		"/>
		<polygon fill="#FFFFFF" points="0,-8 0,0 5.1,0 0.2,-8.5 		"/>
		<polygon fill="#FFFFFF" points="51.4,-57 50.2,-55 56,-55 56,-57 		"/>
		<polygon fill="#FFFFFF" points="56,0 56,-8 51.4,0 		"/>
	</g>
</pattern>
<pattern  id="SVGID_1_" xlink:href="#Nueva_muestra_de_motivo_8" patternTransform="matrix(1 0 0 1 -51.3926 -39.6972)">
</pattern>
<rect x="0" y="0" fill="url(#SVGID_1_)" width="205.1" height="400"/>
</svg>
