<?xml version="1.0" encoding="utf-8"?>
<!-- Generator: Adobe Illustrator 18.0.0, SVG Export Plug-In . SVG Version: 6.00 Build 0)  -->
<!DOCTYPE svg PUBLIC "-//W3C//DTD SVG 1.1//EN" "http://www.w3.org/Graphics/SVG/1.1/DTD/svg11.dtd">
<svg version="1.1" id="Layer_1" xmlns="http://www.w3.org/2000/svg" xmlns:xlink="http://www.w3.org/1999/xlink" x="0px" y="0px"
	 viewBox="-302 243.6 150.1 162.7" enable-background="new -302 243.6 150.1 162.7" xml:space="preserve">
<pattern  x="0" y="560" width="54.8" height="55.9" patternUnits="userSpaceOnUse" id="SVGID_1_" viewBox="0 -55.9 54.8 55.9" overflow="visible">
	<g>
		<polygon fill="none" points="0,0 54.8,0 54.8,-55.9 0,-55.9 		"/>
		<g>
			<polygon fill="none" points="0,-55.9 54.8,-55.9 54.8,0 0,0 			"/>
			<path fill="#FFFFFF" d="M49.3-2.1h5.7v-46l-4.7-7.8H5l-4.7,8.3L0-48.1v46h6.2L5-0.2h45.2L49.3-2.1z M33.5-23.7H21.7l5.8-10.2
				L33.5-23.7z"/>
			<polygon fill="#515151" points="27.7,-33.9 33.5,-23.7 21.7,-23.7 			"/>
			<polygon fill="#515151" points="5,0 0,0 0,-2.1 6.2,-2.1 			"/>
			<polygon fill="#515151" points="0,-48.1 0,-55.9 5,-55.9 0.3,-47.6 			"/>
			<polygon fill="#515151" points="50.2,0 49.3,-2.1 54.8,-2.1 54.8,0 			"/>
			<polygon fill="#515151" points="54.8,-55.9 54.8,-48.1 50.2,-55.9 			"/>
		</g>
	</g>
</pattern>
<pattern  id="SVGID_2_" xlink:href="#SVGID_1_" patternTransform="matrix(0.7123 0 0 -0.7264 -9660.1562 -7132.1162)">
</pattern>
<rect x="-302" y="243.6" fill="url(#SVGID_2_)" width="150.1" height="162.7"/>
</svg>
